:SAMPLES-PER-SECOND 30
:FRAME-RANGE 1-564
:FULLY-SPECIFIED
:DEGREES
318
root  14.8329 38.3674 -53.9288 169.468 -28.7504 176.45
RightUpLeg  -4.09003 0.124518 -6.08664
RightLeg  -2.07007 21.5805 -10.2958
RightFoot  0.90234 -2.19427 20.3185
RightToes  -1.74624e-010 0 -3.6325e-017
Spine  13.6406 5.51345 15.5931
Spine1  -5.44865 9.47746 -13.9759
HEad  0.520956 31.1136 -14.4781
LeftShoulder1  2.87644 -4.20255 -31.314
LeftArm  -3.9707 -4.03982 -8.36319
LeftForeArm  -51.3111 -24.7458 -7.25517
LeftHand  -0.803777 0.558527 19.2986
RightShoulder  22.0909 26.2884 63.7243
RightArm  10.5126 23.8877 3.839
RightForeArm  -4.75698 30.6967 6.97111
RightHand  0.802023 18.9501 3.30335
LeftUpLeg  24.763 -11.5347 -9.6746
LeftLeg  12.731 -20.2806 0.131921
LeftFoot  -20.405 1.06704 11.8632
LeftToes  -6.43926e-010 8.38805e-011 -3.16407e-011
319
root  14.9726 38.382 -55.0999 168.872 -32.3424 178.057
RightUpLeg  -4.32981 0.564302 -5.1546
RightLeg  2.96016 17.5584 -7.60444
RightFoot  1.07855 -2.27937 20.8038
RightToes  -1.74624e-010 0 -3.6325e-017
Spine  14.542 5.19578 17.6714
Spine1  -5.81054 9.63994 -14.0733
HEad  -0.233434 29.7427 -15.4823
LeftShoulder1  2.88401 -4.36528 -30.6333
LeftArm  -5.28581 -5.58639 -7.24203
LeftForeArm  -53.8901 -25.4492 -7.46121
LeftHand  -0.662578 0.941206 17.2742
RightShoulder  22.5649 27.7161 62.2713
RightArm  7.61222 25.9776 4.68813
RightForeArm  -7.38395 29.8053 6.88067
RightHand  0.633364 18.3109 2.59188
LeftUpLeg  24.0686 -22.6614 -10.7135
LeftLeg  18.6742 -12.4317 -4.32304
LeftFoot  -20.5063 0.908269 9.76438
LeftToes  -6.43926e-010 8.38805e-011 -3.16407e-011
320
root  15.1256 38.5267 -56.1925 168.41 -36.4182 179.215
RightUpLeg  -3.76368 0.629772 -4.31016
RightLeg  6.11797 13.7511 -6.12564
RightFoot  0.739389 -1.88765 17.7556
RightToes  -1.74624e-010 0 -3.6325e-017
Spine  15.2162 4.78992 18.4741
Spine1  -6.05984 9.48261 -13.2066
HEad  -0.733302 28.1146 -15.5173
LeftShoulder1  2.90997 -4.57962 -29.9753
LeftArm  -6.85858 -6.85831 -6.75423
LeftForeArm  -56.5246 -26.4641 -7.75161
LeftHand  -0.528926 1.49126 15.6917
RightShoulder  23.4291 29.2032 61.7471
RightArm  5.25596 27.6031 4.10087
RightForeArm  -11.9624 28.8165 6.86133
RightHand  1.58333 18.8693 7.0158
LeftUpLeg  20.1945 -22.2841 -6.6086
LeftLeg  26.2923 -15.4009 -7.81427
LeftFoot  -18.1051 0.437538 5.55726
LeftToes  -6.43926e-010 8.38805e-011 -3.16407e-011
321
root  15.2729 38.7458 -57.2294 168.07 -40.3974 -179.951
RightUpLeg  -2.15145 0.330421 -3.05532
RightLeg  6.62985 10.1032 -6.54739
RightFoot  0.885412 -1.5938 14.8607
RightToes  -1.74624e-010 0 -3.6325e-017
Spine  15.7324 4.60514 19.1596
Spine1  -6.0309 9.58426 -12.9919
HEad  -1.21479 25.7558 -14.8696
LeftShoulder1  2.968 -4.90333 -29.269
LeftArm  -6.32098 -9.09531 -6.45761
LeftForeArm  -58.6607 -27.8575 -8.13082
LeftHand  -0.389597 1.96666 13.0795
RightShoulder  23.7511 30.4877 60.3385
RightArm  2.83874 28.9405 3.73934
RightForeArm  -17.965 28.1602 6.98023
RightHand  1.83621 18.2629 8.43911
LeftUpLeg  15.7195 -22.3774 -3.63616
LeftLeg  33.3028 -14.7769 -9.90473
LeftFoot  -14.2485 0.0871165 0.0640269
LeftToes  -6.43926e-010 8.38805e-011 -3.16407e-011
322
root  15.3935 38.9399 -58.2034 167.938 -43.4189 -179.397
RightUpLeg  -0.844366 -0.71006 -2.53662
RightLeg  6.80358 7.7426 -5.75514
RightFoot  0.558301 -1.32385 12.6913
RightToes  -1.74624e-010 0 -3.6325e-017
Spine  16.3783 4.28627 20.8713
Spine1  -6.1704 9.91365 -15.2719
HEad  -1.69708 23.5607 -13.4362
LeftShoulder1  2.89341 -5.03815 -27.8039
LeftArm  -5.52158 -11.4458 -6.39998
LeftForeArm  -60.1926 -29.4277 -8.5568
LeftHand  -0.306619 1.87653 9.97744
RightShoulder  24.2652 31.7385 59.4955
RightArm  0.406337 30.5142 3.31575
RightForeArm  -22.6417 27.0933 6.92162
RightHand  1.69903 17.5788 8.02739
LeftUpLeg  11.2844 -20.6933 -1.24473
LeftLeg  37.8574 -9.78952 -7.72046
LeftFoot  -12.3574 0.0706647 -0.393958
LeftToes  -6.43926e-010 8.38805e-011 -3.16407e-011
323
root  15.4801 39.2134 -59.1724 168.572 -45.8545 -179.918
RightUpLeg  0.916555 -1.89614 -2.86069
RightLeg  5.58197 6.14578 -4.822
RightFoot  0.758374 -1.12034 10.5916
RightToes  -1.74624e-010 0 -3.6325e-017
Spine  16.9931 4.70997 20.4852
Spine1  -6.46453 10.3196 -15.9806
HEad  -1.92741 21.4203 -12.544
LeftShoulder1  2.89187 -5.19312 -27.164
LeftArm  -5.42364 -13.185 -6.67643
LeftForeArm  -61.2269 -31.3451 -9.08671
LeftHand  -0.214746 2.20753 7.56806
RightShoulder  24.3798 32.909 57.9291
RightArm  -0.8263 31.4589 2.83913
RightForeArm  -28.6472 26.3491 6.98069
RightHand  2.89605 16.8684 14.4389
LeftUpLeg  7.98115 -17.6643 -0.188643
LeftLeg  39.3192 -4.77266 -3.80806
LeftFoot  -12.9171 0.0916361 1.02415
LeftToes  -6.43926e-010 8.38805e-011 -3.16407e-011
324
root  15.5382 39.479 -60.0516 169.577 -48.2939 179.419
RightUpLeg  2.65079 -2.54296 -3.03476
RightLeg  3.66527 3.97397 -4.32547
RightFoot  1.31146 -0.961077 8.73339
RightToes  -1.74624e-010 0 -3.6325e-017
Spine  17.1203 5.48737 19.3703
Spine1  -6.30946 10.7627 -15.2934
HEad  -2.33587 19.2639 -12.4901
LeftShoulder1  2.98365 -5.3593 -27.59
LeftArm  -5.52832 -15.3069 -6.88282
LeftForeArm  -62.77 -32.9586 -9.55797
LeftHand  -0.134691 2.94691 5.84054
RightShoulder  23.7816 33.7253 55.363
RightArm  -1.67378 31.8324 2.47996
RightForeArm  -33.374 26.5987 7.21275
RightHand  2.8762 15.9267 14.9985
LeftUpLeg  5.29432 -14.9994 -0.160542
LeftLeg  38.4558 -2.251 -1.54347
LeftFoot  -13.8245 0.123203 1.85431
LeftToes  -6.43926e-010 8.38805e-011 -3.16407e-011
325
root  15.5771 39.717 -60.8405 170.782 -50.625 178.739
RightUpLeg  4.11434 -2.71009 -2.98163
RightLeg  1.69573 1.43324 -4.05569
RightFoot  1.88987 -0.84486 7.3858
RightToes  -1.74624e-010 0 -3.6325e-017
Spine  17.0749 6.24758 18.2928
Spine1  -6.03664 11.1749 -14.5447
HEad  -2.8317 17.2436 -12.8814
LeftShoulder1  3.08142 -5.45178 -28.3555
LeftArm  -5.202 -17.4507 -6.95532
LeftForeArm  -64.5403 -34.9454 -10.1616
LeftHand  -0.0874855 3.67652 4.84253
RightShoulder  22.7155 34.2285 52.2215
RightArm  -2.26966 31.9462 2.40612
RightForeArm  -36.4797 27.2157 7.46892
RightHand  2.79399 14.801 15.4063
LeftUpLeg  3.22902 -12.1329 -0.710682
LeftLeg  35.4895 -2.2988 -1.39786
LeftFoot  -14.6502 0.154423 2.30024
LeftToes  -6.43926e-010 8.38805e-011 -3.16407e-011
326
root  15.5814 39.9013 -61.5592 172.048 -53.0354 178.078
RightUpLeg  5.35717 -2.94797 -2.99029
RightLeg  -0.125379 -1.08115 -3.56964
RightFoot  2.26532 -0.777931 6.64292
RightToes  -1.74624e-010 0 -3.6325e-017
Spine  17.0058 6.71785 17.1895
Spine1  -6.02174 11.2808 -13.8227
HEad  -3.05793 15.4453 -13.0341
LeftShoulder1  3.15039 -5.52658 -28.8465
LeftArm  -4.41624 -18.8828 -7.31501
LeftForeArm  -64.5471 -37.0954 -10.8388
LeftHand  -0.0598238 4.00323 3.43437
RightShoulder  21.5867 34.2735 49.5515
RightArm  -2.20252 31.6456 2.07892
RightForeArm  -38.587 28.8142 7.9412
RightHand  2.66604 13.7165 15.5544
LeftUpLeg  1.82203 -8.8039 -1.4775
LeftLeg  30.892 -5.27452 -3.05303
LeftFoot  -15.0136 0.157056 2.087
LeftToes  -6.43926e-010 8.38805e-011 -3.16407e-011
327
root  15.547 40.0758 -62.1999 173.41 -55.7337 177.204
RightUpLeg  6.84924 -4.02741 -3.7098
RightLeg  -2.23344 -2.58783 -2.17135
RightFoot  2.50159 -0.593571 5.0267
RightToes  -1.74624e-010 0 -3.6325e-017
Spine  16.9711 6.79723 16.0717
Spine1  -6.03753 11.063 -13.4918
HEad  -3.42056 13.6897 -13.0318
LeftShoulder1  3.15843 -5.5569 -28.818
LeftArm  -3.64166 -19.6956 -8.07259
LeftForeArm  -65.9986 -39.7623 -11.7513
LeftHand  -0.0318395 4.70592 1.26073
RightShoulder  20.2405 33.5782 47.3013
RightArm  -3.01418 30.7677 1.53268
RightForeArm  -39.0818 31.5296 8.68301
RightHand  2.57026 12.8105 15.7598
LeftUpLeg  1.58388 -7.54494 -3.22702
LeftLeg  24.4375 -7.22491 -3.24299
LeftFoot  -14.9837 0.0965822 0.210182
LeftToes  -6.43926e-010 8.38805e-011 -3.16407e-011
328
root  15.4665 40.2034 -62.7692 174.814 -58.4585 176.365
RightUpLeg  8.21052 -4.60307 -4.10161
RightLeg  -4.31743 -4.88772 -0.993912
RightFoot  2.85844 -0.497139 4.14576
RightToes  -1.74624e-010 0 -3.6325e-017
Spine  16.6518 6.61268 15.0711
Spine1  -5.98948 10.6394 -13.5482
HEad  -3.47206 12.2754 -12.4259
LeftShoulder1  3.15588 -5.68046 -28.3094
LeftArm  -3.59288 -19.2664 -9.37044
LeftForeArm  -65.6152 -43.0425 -12.9791
LeftHand  -0.0257764 5.03851 -0.834719
RightShoulder  19.1525 32.3142 46.3496
RightArm  -5.15929 29.7549 0.477588
RightForeArm  -39.9158 34.1466 9.45943
RightHand  2.67384 11.2541 17.9818
LeftUpLeg  2.03838 -8.27565 -5.30273
LeftLeg  17.1383 -6.98617 -1.80837
LeftFoot  -14.9002 0.0819578 -0.239075
LeftToes  -6.43926e-010 8.38805e-011 -3.16407e-011
329
root  15.3482 40.2717 -63.2972 175.647 -60.8236 175.973
RightUpLeg  9.44937 -4.63822 -3.93075
RightLeg  -5.86541 -7.28126 -0.156121
RightFoot  2.7955 -0.423898 3.57086
RightToes  -1.74624e-010 0 -3.6325e-017
Spine  16.3306 6.31256 14.2048
Spine1  -6.0202 10.1212 -13.4206
HEad  -3.13082 10.9098 -11.4294
LeftShoulder1  3.12718 -5.65298 -28.0933
LeftArm  -2.86264 -18.5551 -9.97758
LeftForeArm  -64.024 -47.0174 -14.6799
LeftHand  -0.0382795 5.7242 -1.76771
RightShoulder  17.9302 30.6639 45.509
RightArm  -5.88685 28.5182 -0.291646
RightForeArm  -41.7403 37.7351 10.6411
RightHand  2.83605 10.2626 20.3078
LeftUpLeg  3.24846 -5.31413 -7.30396
LeftLeg  9.96781 -10.8567 1.43599
LeftFoot  -13.9683 0.106523 0.989089
LeftToes  -6.43926e-010 8.38805e-011 -3.16407e-011
